<mxfile host="9b7af849-0421-4d88-b07f-c63e09482d94" modified="2020-10-08T08:39:39.870Z" agent="5.0 (Windows NT 10.0; WOW64) AppleWebKit/537.36 (KHTML, like Gecko) Code/1.48.1 Chrome/78.0.3904.130 Electron/7.3.2 Safari/537.36" etag="m18BWE80wDFqqkaS80Vv" version="13.1.3">
    <diagram id="6hGFLwfOUW9BJ-s0fimq" name="Page-1">
        <mxGraphModel dx="1095" dy="692" grid="1" gridSize="10" guides="1" tooltips="1" connect="1" arrows="1" fold="1" page="1" pageScale="1" pageWidth="827" pageHeight="1169" math="0" shadow="0">
            <root>
                <mxCell id="0"/>
                <mxCell id="1" parent="0"/>
                <mxCell id="5" style="edgeStyle=orthogonalEdgeStyle;rounded=0;orthogonalLoop=1;jettySize=auto;html=1;" edge="1" parent="1" source="2" target="6">
                    <mxGeometry relative="1" as="geometry">
                        <mxPoint x="260" y="450" as="targetPoint"/>
                    </mxGeometry>
                </mxCell>
                <mxCell id="2" value="Home" style="html=1;labelPosition=center;verticalLabelPosition=middle;verticalAlign=top;align=center;fontSize=12;outlineConnect=0;spacingTop=-6;shape=mxgraph.sitemap.page;fillColor=#d80073;strokeColor=#A50040;fontColor=#ffffff;" vertex="1" parent="1">
                    <mxGeometry x="200" y="240" width="120" height="70" as="geometry"/>
                </mxCell>
                <mxCell id="3" value="&lt;ol&gt;&lt;li&gt;Products&lt;/li&gt;&lt;li&gt;Merchants&lt;/li&gt;&lt;li&gt;categoris&lt;/li&gt;&lt;li&gt;Top products&lt;/li&gt;&lt;/ol&gt;" style="text;strokeColor=none;fillColor=none;html=1;whiteSpace=wrap;verticalAlign=middle;overflow=hidden;" vertex="1" parent="1">
                    <mxGeometry x="40" y="240" width="120" height="80" as="geometry"/>
                </mxCell>
                <mxCell id="4" value="" style="shape=curlyBracket;whiteSpace=wrap;html=1;rounded=1;" vertex="1" parent="1">
                    <mxGeometry x="170" y="220" width="20" height="120" as="geometry"/>
                </mxCell>
                <mxCell id="6" value="Products" style="html=1;labelPosition=center;verticalLabelPosition=middle;verticalAlign=top;align=center;fontSize=12;outlineConnect=0;spacingTop=-6;shape=mxgraph.sitemap.products;fillColor=#d80073;strokeColor=#A50040;fontColor=#ffffff;" vertex="1" parent="1">
                    <mxGeometry x="200" y="415" width="120" height="70" as="geometry"/>
                </mxCell>
                <mxCell id="8" value="&lt;ol&gt;&lt;li&gt;*filter by new/old&lt;/li&gt;&lt;li&gt;*filter by city&lt;/li&gt;&lt;li&gt;filter by category&lt;/li&gt;&lt;li&gt;filter by merchant&lt;/li&gt;&lt;li&gt;filter by location&lt;/li&gt;&lt;/ol&gt;" style="text;strokeColor=none;fillColor=none;html=1;whiteSpace=wrap;verticalAlign=middle;overflow=hidden;" vertex="1" parent="1">
                    <mxGeometry x="25" y="390" width="150" height="110" as="geometry"/>
                </mxCell>
                <mxCell id="10" style="edgeStyle=orthogonalEdgeStyle;rounded=0;orthogonalLoop=1;jettySize=auto;html=1;" edge="1" parent="1" source="9" target="6">
                    <mxGeometry relative="1" as="geometry"/>
                </mxCell>
                <mxCell id="9" value="Product" style="html=1;labelPosition=center;verticalLabelPosition=middle;verticalAlign=top;align=center;fontSize=12;outlineConnect=0;spacingTop=-6;shape=mxgraph.sitemap.products;fillColor=#d80073;strokeColor=#A50040;fontColor=#ffffff;" vertex="1" parent="1">
                    <mxGeometry x="420" y="425" width="120" height="70" as="geometry"/>
                </mxCell>
                <mxCell id="25" style="edgeStyle=orthogonalEdgeStyle;rounded=0;orthogonalLoop=1;jettySize=auto;html=1;" edge="1" parent="1" source="11" target="24">
                    <mxGeometry relative="1" as="geometry"/>
                </mxCell>
                <mxCell id="11" value="Make Payment" style="html=1;strokeColor=#A50040;fillColor=#d80073;labelPosition=center;verticalLabelPosition=middle;verticalAlign=top;align=center;fontSize=12;outlineConnect=0;spacingTop=-6;fontColor=#ffffff;shape=mxgraph.sitemap.payment;" vertex="1" parent="1">
                    <mxGeometry x="1230" y="695" width="120" height="70" as="geometry"/>
                </mxCell>
                <mxCell id="12" value="Shopping" style="html=1;strokeColor=#A50040;fillColor=#d80073;labelPosition=center;verticalLabelPosition=middle;verticalAlign=top;align=center;fontSize=12;outlineConnect=0;spacingTop=-6;fontColor=#ffffff;shape=mxgraph.sitemap.shopping;" vertex="1" parent="1">
                    <mxGeometry x="300" y="780" width="120" height="70" as="geometry"/>
                </mxCell>
                <mxCell id="14" style="edgeStyle=orthogonalEdgeStyle;rounded=0;orthogonalLoop=1;jettySize=auto;html=1;" edge="1" parent="1" source="13" target="9">
                    <mxGeometry relative="1" as="geometry"/>
                </mxCell>
                <mxCell id="13" value="ADD TO CART" style="ellipse;whiteSpace=wrap;html=1;" vertex="1" parent="1">
                    <mxGeometry x="610" y="490" width="120" height="80" as="geometry"/>
                </mxCell>
                <mxCell id="16" style="edgeStyle=orthogonalEdgeStyle;rounded=0;orthogonalLoop=1;jettySize=auto;html=1;" edge="1" parent="1" source="15" target="13">
                    <mxGeometry relative="1" as="geometry"/>
                </mxCell>
                <mxCell id="18" style="edgeStyle=orthogonalEdgeStyle;rounded=0;orthogonalLoop=1;jettySize=auto;html=1;" edge="1" parent="1" source="15" target="12">
                    <mxGeometry relative="1" as="geometry"/>
                </mxCell>
                <mxCell id="22" style="edgeStyle=orthogonalEdgeStyle;rounded=0;orthogonalLoop=1;jettySize=auto;html=1;entryX=0;entryY=0.5;entryDx=0;entryDy=0;" edge="1" parent="1" source="15" target="26">
                    <mxGeometry relative="1" as="geometry"/>
                </mxCell>
                <mxCell id="15" value="" style="rhombus;whiteSpace=wrap;html=1;" vertex="1" parent="1">
                    <mxGeometry x="630" y="690" width="80" height="80" as="geometry"/>
                </mxCell>
                <mxCell id="17" value="Proceed to shopping cart?" style="text;html=1;strokeColor=none;fillColor=none;align=center;verticalAlign=middle;whiteSpace=wrap;rounded=0;" vertex="1" parent="1">
                    <mxGeometry x="450" y="700" width="120" height="20" as="geometry"/>
                </mxCell>
                <mxCell id="19" value="Proceed to checkout?" style="text;html=1;strokeColor=none;fillColor=none;align=center;verticalAlign=middle;whiteSpace=wrap;rounded=0;" vertex="1" parent="1">
                    <mxGeometry x="710" y="695" width="120" height="20" as="geometry"/>
                </mxCell>
                <mxCell id="23" style="edgeStyle=orthogonalEdgeStyle;rounded=0;orthogonalLoop=1;jettySize=auto;html=1;" edge="1" parent="1" source="21" target="11">
                    <mxGeometry relative="1" as="geometry"/>
                </mxCell>
                <mxCell id="21" value="Checkout" style="html=1;strokeColor=#A50040;fillColor=#d80073;labelPosition=center;verticalLabelPosition=middle;verticalAlign=top;align=center;fontSize=12;outlineConnect=0;spacingTop=-6;fontColor=#ffffff;shape=mxgraph.sitemap.form;" vertex="1" parent="1">
                    <mxGeometry x="1020" y="570" width="120" height="70" as="geometry"/>
                </mxCell>
                <mxCell id="24" value="Success" style="html=1;strokeColor=#A50040;fillColor=#d80073;labelPosition=center;verticalLabelPosition=middle;verticalAlign=top;align=center;fontSize=12;outlineConnect=0;spacingTop=-6;fontColor=#ffffff;shape=mxgraph.sitemap.success;" vertex="1" parent="1">
                    <mxGeometry x="1230" y="1000" width="120" height="70" as="geometry"/>
                </mxCell>
                <mxCell id="27" style="edgeStyle=orthogonalEdgeStyle;rounded=0;orthogonalLoop=1;jettySize=auto;html=1;" edge="1" parent="1" source="26" target="21">
                    <mxGeometry relative="1" as="geometry"/>
                </mxCell>
                <mxCell id="29" style="edgeStyle=orthogonalEdgeStyle;rounded=0;orthogonalLoop=1;jettySize=auto;html=1;" edge="1" parent="1" source="26">
                    <mxGeometry relative="1" as="geometry">
                        <mxPoint x="900" y="1250" as="targetPoint"/>
                    </mxGeometry>
                </mxCell>
                <mxCell id="26" value="Authenticate" style="rhombus;whiteSpace=wrap;html=1;" vertex="1" parent="1">
                    <mxGeometry x="880" y="760" width="140" height="150" as="geometry"/>
                </mxCell>
                <mxCell id="28" value="yes" style="text;html=1;strokeColor=none;fillColor=none;align=center;verticalAlign=middle;whiteSpace=wrap;rounded=0;" vertex="1" parent="1">
                    <mxGeometry x="940" y="670" width="120" height="20" as="geometry"/>
                </mxCell>
                <mxCell id="31" value="No" style="text;html=1;strokeColor=none;fillColor=none;align=center;verticalAlign=middle;whiteSpace=wrap;rounded=0;" vertex="1" parent="1">
                    <mxGeometry x="860" y="1050" width="120" height="20" as="geometry"/>
                </mxCell>
                <mxCell id="32" value="Authenticate" style="html=1;strokeColor=#A50040;fillColor=#d80073;labelPosition=center;verticalLabelPosition=middle;verticalAlign=top;align=center;fontSize=12;outlineConnect=0;spacingTop=-6;fontColor=#ffffff;shape=mxgraph.sitemap.security;" vertex="1" parent="1">
                    <mxGeometry x="840" y="1250" width="120" height="70" as="geometry"/>
                </mxCell>
                <mxCell id="33" value="" style="shape=curlyBracket;whiteSpace=wrap;html=1;rounded=1;" vertex="1" parent="1">
                    <mxGeometry x="180" y="400" width="20" height="120" as="geometry"/>
                </mxCell>
                <mxCell id="35" value="" style="shape=curlyBracket;whiteSpace=wrap;html=1;rounded=1;" vertex="1" parent="1">
                    <mxGeometry x="1205" y="985" width="20" height="120" as="geometry"/>
                </mxCell>
                <mxCell id="36" value="&lt;div&gt;Create Order&lt;/div&gt;" style="text;strokeColor=none;fillColor=none;html=1;whiteSpace=wrap;verticalAlign=middle;overflow=hidden;" vertex="1" parent="1">
                    <mxGeometry x="1120" y="990" width="150" height="110" as="geometry"/>
                </mxCell>
                <mxCell id="38" style="edgeStyle=orthogonalEdgeStyle;rounded=0;orthogonalLoop=1;jettySize=auto;html=1;entryX=1;entryY=0.5;entryDx=0;entryDy=0;entryPerimeter=0;" edge="1" parent="1" source="37" target="2">
                    <mxGeometry relative="1" as="geometry"/>
                </mxCell>
                <mxCell id="40" style="edgeStyle=orthogonalEdgeStyle;rounded=0;orthogonalLoop=1;jettySize=auto;html=1;entryX=0;entryY=0.5;entryDx=0;entryDy=0;entryPerimeter=0;" edge="1" parent="1" source="37" target="39">
                    <mxGeometry relative="1" as="geometry"/>
                </mxCell>
                <mxCell id="37" value="User Account" style="html=1;strokeColor=#A50040;fillColor=#d80073;labelPosition=center;verticalLabelPosition=middle;verticalAlign=top;align=center;fontSize=12;outlineConnect=0;spacingTop=-6;fontColor=#ffffff;shape=mxgraph.sitemap.user;" vertex="1" parent="1">
                    <mxGeometry x="530" y="90" width="120" height="70" as="geometry"/>
                </mxCell>
                <mxCell id="41" style="edgeStyle=orthogonalEdgeStyle;rounded=0;orthogonalLoop=1;jettySize=auto;html=1;" edge="1" parent="1" source="39" target="9">
                    <mxGeometry relative="1" as="geometry">
                        <Array as="points">
                            <mxPoint x="770" y="330"/>
                            <mxPoint x="480" y="330"/>
                        </Array>
                    </mxGeometry>
                </mxCell>
                <mxCell id="39" value="Order" style="html=1;labelPosition=center;verticalLabelPosition=middle;verticalAlign=top;align=center;fontSize=12;outlineConnect=0;spacingTop=-6;shape=mxgraph.sitemap.products;fillColor=#d80073;strokeColor=#A50040;fontColor=#ffffff;" vertex="1" parent="1">
                    <mxGeometry x="710" y="200" width="120" height="70" as="geometry"/>
                </mxCell>
            </root>
        </mxGraphModel>
    </diagram>
</mxfile>